<?xml version="1.0" encoding="UTF-8"?>
<svg id="g-Turkey-medium-_svg-img" xmlns="http://www.w3.org/2000/svg" baseProfile="tiny" version="1.2" viewBox="0 0 392 300">
  <!-- Generator: Adobe Illustrator 29.4.0, SVG Export Plug-In . SVG Version: 2.1.0 Build 152)  -->
  <path id="path" d="M188.827,94.232c-1.447.503-3.397.566-3.397.566l-2.327-.063-1.824.063-1.51.692-1.887,1.95s-3.46,8.24-3.774,10.379-.692,3.837-.692,5.095.44,1.447,0,2.453-.063,1.321,0,1.573.523.189-.21,1.195-.859,1.635-.985,2.076-.566.44-.315,1.51.315,1.258.377,1.887,0,1.447.315,1.95.944,1.258,1.195,1.635,1.761.315,1.761.315c0,0,2.013-2.327,2.013-5.41s-.189-3.711-.126-4.403,1.761-6.856,2.013-7.674.252-1.069.44-1.573c0,0,.503-3.145,1.195-4.026s1.195-1.698,1.51-2.139.252-.44,1.195-1.069,1.132-.755,1.761-1.51,1.195-1.258,1.384-1.698,1.006-2.076,1.006-2.076l.881-1.698Z" fill="none" stroke="#ffce6c" stroke-linecap="round" stroke-linejoin="round" stroke-width=".985"/>
  <path id="path1" data-name="path" d="M190.029,107.034s8.754-2.918,10.092-4.377l1.337-1.459s-4.62,18.482-4.499,19.941.851,2.067.122,4.256-1.337,3.891-2.067,5.228-1.945,4.864-2.189,6.08-.486,2.189-.973,3.405-1.824,4.49-2.432,5.103-1.209,3.044-1.209,3.044c0,0-.858,1.182-.858,2.232s.608,2.267,0,3.361c0,0-3.526,7.852-4.985,8.547s-2.149.086-2.655-1.13.141-1.702,0-2.553.035-1.459.616-2.067,1.675-3.648,1.675-3.648c0,0,.608-.764,0-2.51s-.851-2.111-.73-3.205.365-1.91.851-3.083,1.286-.471,1.494-2.099.451-2.618.694-3.521,1.702-5.317,1.945-6.636,1.094-5.088,1.094-5.575.866-.486.858-1.459-.358-4.256,0-6.444,1.209-5.35,1.573-5.715-1.308-.243-.958-1.702,1.201-4.012,1.201-4.012Z" fill="none" stroke="#ffce6c" stroke-linecap="round" stroke-linejoin="round" stroke-width=".952"/>
  <path id="path2" data-name="path" d="M190.487,154.62c1.851-.851,1.73-1.216,2.216-1.945s1.702-.851,2.31-.851,4.134-.156,4.742-1.78c0,0,.243,2.432.973,2.288s.243.1.73.708,1.459.73,0,3.891c0,0,2.047,1.174-5.847,8.004,0,0-2.908,5.006-3.273,5.371s-1.758,3.04-1.851,3.891.057,2.432-1.66,3.891-2.811,1.945-4.027,1.459c0,0-3.106.243-4.471-4.134,0,0,.094-3.04,2.891-6.201,0,0-2.189-2.067-1.398-5.532l1.069-1.728,1.428-2.102s2.359-4.557,2.662-5.195,1.345-.885,2.135-.521,1.371.486,1.371.486Z" fill="none" stroke="#ffce6c" stroke-linecap="round" stroke-linejoin="round" stroke-width=".952"/>
  <line id="line" x1="113.032" y1="84.489" x2="180.329" y2="100.897" fill="none" stroke="#f42149" stroke-miterlimit="10" stroke-width=".985"/>
  <line id="line1" data-name="line" x1="188.827" y1="138.136" x2="117.149" y2="179.085" fill="none" stroke="#f42149" stroke-miterlimit="10" stroke-width=".985"/>
  <line id="line2" data-name="line" x1="191.721" y1="164.935" x2="79.432" y2="211.607" fill="none" stroke="#f42149" stroke-miterlimit="10" stroke-width=".985"/>
</svg>
