<?xml version="1.0" encoding="UTF-8"?>
<svg id="g-Turkey-small-_svg-img" xmlns="http://www.w3.org/2000/svg" baseProfile="tiny" version="1.2" viewBox="0 0 320 329.745">
  <!-- Generator: Adobe Illustrator 29.4.0, SVG Export Plug-In . SVG Version: 2.1.0 Build 152)  -->
  <path id="path" d="M152.877,111.814c-1.519.528-3.566.594-3.566.594l-2.444-.066-1.915.066-1.585.726-1.981,2.047s-3.632,8.652-3.963,10.897-.726,4.029-.726,5.35.462,1.519,0,2.576-.066,1.387,0,1.651.549.198-.221,1.255-.902,1.717-1.034,2.179-.594.462-.33,1.585.33,1.321.396,1.981,0,1.519.33,2.047.991,1.321,1.255,1.717,1.849.33,1.849.33c0,0,2.113-2.444,2.113-5.68s-.198-3.897-.132-4.623,1.849-7.199,2.113-8.057.264-1.123.462-1.651c0,0,.528-3.302,1.255-4.227s1.255-1.783,1.585-2.245.264-.462,1.255-1.123,1.189-.793,1.849-1.585,1.255-1.321,1.453-1.783,1.057-2.179,1.057-2.179l.925-1.783Z" fill="none" stroke="#ffce6c" stroke-linecap="round" stroke-linejoin="round" stroke-width="1.035"/>
  <path id="path1" data-name="path" d="M154.138,125.255s9.191-3.064,10.596-4.596l1.404-1.532s-4.851,19.404-4.723,20.936.894,2.17.128,4.468-1.404,4.085-2.17,5.489-2.043,5.106-2.298,6.383-.511,2.298-1.021,3.574-1.915,4.714-2.553,5.357-1.269,3.196-1.269,3.196c0,0-.901,1.241-.901,2.344s.638,2.38,0,3.529c0,0-3.702,8.244-5.234,8.973s-2.256.091-2.788-1.186.148-1.787,0-2.681.037-1.532.646-2.17,1.758-3.83,1.758-3.83c0,0,.638-.802,0-2.635s-.894-2.216-.766-3.365.383-2.005.894-3.237,1.35-.495,1.569-2.204.474-2.749.729-3.697,1.787-5.583,2.043-6.968,1.149-5.342,1.149-5.853.909-.511.901-1.532-.375-4.468,0-6.766,1.269-5.617,1.652-6-1.373-.255-1.006-1.787,1.261-4.213,1.261-4.213Z" fill="none" stroke="#ffce6c" stroke-linecap="round" stroke-linejoin="round"/>
  <path id="path2" data-name="path" d="M154.62,175.217c1.944-.894,1.816-1.277,2.327-2.043s1.787-.894,2.426-.894,4.34-.164,4.979-1.869c0,0,.255,2.553,1.021,2.403s.255.105.766.743,1.532.766,0,4.085c0,0,2.149,1.232-6.138,8.403,0,0-3.053,5.256-3.436,5.639s-1.845,3.191-1.944,4.085.06,2.553-1.743,4.085-2.952,2.043-4.228,1.532c0,0-3.262.255-4.695-4.34,0,0,.099-3.191,3.035-6.511,0,0-2.298-2.17-1.468-5.809l1.123-1.814,1.5-2.207s2.477-4.784,2.795-5.454,1.412-.93,2.242-.547,1.439.511,1.439.511Z" fill="none" stroke="#ffce6c" stroke-linecap="round" stroke-linejoin="round"/>
  <line id="line" x1="115.893" y1="88.696" x2="143.954" y2="118.812" fill="none" stroke="#f42149" stroke-miterlimit="10" stroke-width="1.035"/>
  <line id="line1" data-name="line" x1="152.877" y1="157.91" x2="115.893" y2="182.914" fill="none" stroke="#f42149" stroke-miterlimit="10" stroke-width="1.035"/>
  <line id="line2" data-name="line" x1="155.915" y1="186.046" x2="80.368" y2="235.049" fill="none" stroke="#f42149" stroke-miterlimit="10" stroke-width="1.035"/>
</svg>
