<?xml version="1.0" encoding="UTF-8"?>
<svg id="g-Shipwrecked-captain_s-doomed-journey-large-_svg-img" xmlns="http://www.w3.org/2000/svg" baseProfile="tiny" version="1.2" viewBox="0 0 584 350.231">
  <!-- Generator: Adobe Illustrator 29.4.0, SVG Export Plug-In . SVG Version: 2.1.0 Build 152)  -->
  <path id="path" d="M352.845,26.996s4.774,7.697-.181,12.261" fill="none" stroke="#f42149" stroke-width="1.082"/>
  <g id="Shipwrecked">
    <g id="Star">
      <polygon points="-882.872 43.911 -884.229 44.833 -884.109 43.197 -885.745 43.317 -884.823 41.96 -886.3 41.246 -884.823 40.532 -885.745 39.175 -884.109 39.296 -884.229 37.659 -882.872 38.582 -882.158 37.104 -881.444 38.582 -880.087 37.659 -880.208 39.296 -878.571 39.175 -879.494 40.532 -878.017 41.246 -879.494 41.96 -878.571 43.317 -880.208 43.197 -880.087 44.833 -881.444 43.911 -882.158 45.388 -882.872 43.911" fill="#fff"/>
      <path d="M-882.158,37.541l.639,1.322,1.214-.825-.108,1.464,1.464-.108-.825,1.214,1.322.639-1.322.639.825,1.214-1.464-.108.108,1.464-1.214-.825-.639,1.322-.639-1.322-1.214.825.108-1.464-1.464.108.825-1.214-1.322-.639,1.322-.639-.825-1.214,1.464.108-.108-1.464,1.214.825.639-1.322M-882.158,36.668l-.342.707-.447.925-.85-.578-.65-.442.058.784.075,1.025-1.025-.075-.784-.058.442.65.578.85-.925.447-.707.342.707.342.925.447-.578.85-.442.65.784-.058,1.025-.075-.075,1.025-.058.784.65-.442.85-.578.447.925.342.707.342-.707.447-.925.85.578.65.442-.058-.784-.075-1.025,1.025.075.784.058-.442-.65-.578-.85.925-.447.707-.342-.707-.342-.925-.447.578-.85.442-.65-.784.058-1.025.075.075-1.025.058-.784-.65.442-.85.578-.447-.925-.342-.707h0Z" fill="#f42149"/>
    </g>
    <g id="Star1" data-name="Star">
      <polygon points="-319.304 42.347 -320.661 43.269 -320.541 41.633 -322.177 41.753 -321.254 40.396 -322.732 39.682 -321.254 38.968 -322.177 37.611 -320.541 37.731 -320.661 36.095 -319.304 37.018 -318.59 35.54 -317.876 37.018 -316.519 36.095 -316.64 37.731 -315.003 37.611 -315.926 38.968 -314.448 39.682 -315.926 40.396 -315.003 41.753 -316.64 41.633 -316.519 43.269 -317.876 42.347 -318.59 43.823 -319.304 42.347" fill="#fff"/>
      <path d="M-318.59,35.977l.639,1.322,1.214-.825-.108,1.464,1.464-.108-.825,1.214,1.322.639-1.322.639.825,1.214-1.464-.108.108,1.464-1.214-.825-.639,1.322-.639-1.322-1.214.825.108-1.464-1.464.108.825-1.214-1.322-.639,1.322-.639-.825-1.214,1.464.108-.108-1.464,1.214.825.639-1.322M-318.59,35.104l-.342.707-.447.925-.85-.578-.65-.442.058.784.075,1.025-1.025-.075-.784-.058.442.65.578.85-.925.447-.707.342.707.342.925.447-.578.85-.442.65.784-.058,1.025-.075-.075,1.025-.058.784.65-.442.85-.578.447.925.342.707.342-.707.447-.925.85.578.65.442-.058-.784-.075-1.025,1.025.075.784.058-.442-.65-.578-.85.925-.447.707-.342-.707-.342-.925-.447.578-.85.442-.65-.784.058-1.025.075.075-1.025.058-.784-.65.442-.85.578-.447-.925-.342-.707h0Z" fill="#f42149"/>
    </g>
    <g id="Star2" data-name="Star">
      <polygon points="351.064 43.009 349.595 44.007 349.726 42.236 347.954 42.367 348.953 40.897 347.354 40.125 348.953 39.352 347.954 37.883 349.726 38.013 349.595 36.242 351.064 37.241 351.837 35.642 352.609 37.241 354.078 36.242 353.948 38.013 355.72 37.883 354.721 39.352 356.32 40.125 354.721 40.897 355.72 42.367 353.948 42.236 354.078 44.007 352.609 43.009 351.837 44.608 351.064 43.009" fill="#fff"/>
      <path d="M351.837,36.114l.691,1.431,1.314-.893-.117,1.585,1.585-.117-.893,1.314,1.431.691-1.431.691.893,1.314-1.585-.117.117,1.585-1.314-.893-.691,1.431-.691-1.431-1.314.893.117-1.585-1.585.117.893-1.314-1.431-.691,1.431-.691-.893-1.314,1.585.117-.117-1.585,1.314.893.691-1.431M351.837,35.169l-.37.766-.484,1.002-.92-.626-.703-.478.062.848.082,1.11-1.11-.082-.848-.062.478.703.626.92-1.002.484-.766.37.766.37,1.002.484-.626.92-.478.703.848-.062,1.11-.082-.082,1.11-.062.848.703-.478.92-.626.484,1.002.37.766.37-.766.484-1.002.92.625.703.478-.062-.848-.082-1.11,1.11.082.848.062-.478-.703-.626-.92,1.002-.484.766-.37-.766-.37-1.002-.484.626-.92.478-.703-.848.062-1.11.082.082-1.11.062-.848-.703.478-.92.626-.484-1.002-.37-.766h0Z" fill="#f42149"/>
    </g>
  </g>
  <g id="Plan">
    <path id="planned" d="M-881.248,44.34s30.698,143.69-103.438,210.069" fill="none" stroke="#f42149" stroke-dasharray="4 4"/>
    <path id="planned1" data-name="planned" d="M-317.826,43.531s30.844,142.936-103.292,209.314" fill="none" stroke="#f42149" stroke-dasharray="4 4"/>
    <path id="planned2" data-name="planned" d="M352.845,43.283s33.208,155.735-111.994,227.589" fill="none" stroke="#f42149" stroke-dasharray="4.33 4.33" stroke-width="1.082"/>
  </g>
</svg>
