<?xml version="1.0" encoding="UTF-8"?>
<svg id="g-Shipwrecked-captain_s-doomed-journey-small-_svg-img" xmlns="http://www.w3.org/2000/svg" baseProfile="tiny" version="1.2" viewBox="0 0 320 341.396">
  <!-- Generator: Adobe Illustrator 29.4.0, SVG Export Plug-In . SVG Version: 2.1.0 Build 152)  -->
  <path id="path" d="M187.478,31.25s4.41,7.111-.167,11.326" fill="none" stroke="#f42149"/>
  <g id="Shipwrecked">
    <g id="Star">
      <polygon points="185.833 46.043 184.476 46.965 184.597 45.329 182.961 45.449 183.884 44.092 182.405 43.378 183.884 42.665 182.961 41.308 184.597 41.428 184.476 39.791 185.833 40.714 186.547 39.236 187.261 40.714 188.619 39.791 188.498 41.428 190.134 41.308 189.211 42.665 190.689 43.378 189.211 44.092 190.134 45.449 188.498 45.329 188.619 46.965 187.261 46.043 186.547 47.52 185.833 46.043" fill="#fff"/>
      <path d="M186.547,39.673l.639,1.322,1.214-.825-.108,1.464,1.464-.108-.825,1.214,1.322.639-1.322.639.825,1.214-1.464-.108.108,1.464-1.214-.825-.639,1.322-.639-1.322-1.214.825.108-1.464-1.464.108.825-1.214-1.322-.639,1.322-.639-.825-1.214,1.464.108-.108-1.464,1.214.825.639-1.322M186.547,38.8l-.342.707-.447.925-.85-.578-.65-.442.058.784.075,1.025-1.025-.075-.784-.058.442.65.578.85-.925.447-.707.342.707.342.925.447-.578.85-.442.65.784-.058,1.025-.075-.075,1.025-.058.784.65-.442.85-.578.447.925.342.707.342-.707.447-.925.85.578.65.442-.058-.784-.075-1.025,1.025.075.784.058-.442-.65-.578-.85.925-.447.707-.342-.707-.342-.925-.447.578-.85.442-.65-.784.058-1.025.075.075-1.025.058-.784-.65.442-.85.578-.447-.925-.342-.707h0Z" fill="#f42149"/>
    </g>
    <g id="Star1" data-name="Star">
      <polygon points="749.401 44.479 748.045 45.401 748.165 43.765 746.528 43.885 747.451 42.528 745.974 41.814 747.451 41.1 746.528 39.743 748.165 39.864 748.045 38.228 749.401 39.15 750.115 37.672 750.829 39.15 752.186 38.228 752.065 39.864 753.702 39.743 752.779 41.1 754.257 41.814 752.779 42.528 753.702 43.885 752.065 43.765 752.186 45.401 750.829 44.479 750.115 45.956 749.401 44.479" fill="#fff"/>
      <path d="M750.115,38.109l.639,1.322,1.214-.825-.108,1.464,1.464-.108-.825,1.214,1.322.639-1.322.639.825,1.214-1.464-.108.108,1.464-1.214-.825-.639,1.322-.639-1.322-1.214.825.108-1.464-1.464.108.825-1.214-1.322-.639,1.322-.639-.825-1.214,1.464.108-.108-1.464,1.214.825.639-1.322M750.115,37.236l-.342.707-.447.925-.85-.578-.65-.442.058.784.075,1.025-1.025-.075-.784-.058.442.65.578.85-.925.447-.707.342.707.342.925.447-.578.85-.442.65.784-.058,1.025-.075-.075,1.025-.058.784.65-.442.85-.578.447.925.342.707.342-.707.447-.925.85.578.65.442-.058-.784-.075-1.025,1.025.075.784.058-.442-.65-.578-.85.925-.447.707-.342-.707-.342-.925-.447.578-.85.442-.65-.784.058-1.025.075.075-1.025.058-.784-.65.442-.85.578-.447-.925-.342-.707h0Z" fill="#f42149"/>
    </g>
    <g id="Star2" data-name="Star">
      <polygon points="1419.77 45.141 1418.301 46.14 1418.431 44.368 1416.659 44.499 1417.658 43.03 1416.059 42.257 1417.658 41.484 1416.659 40.016 1418.431 40.146 1418.301 38.374 1419.77 39.373 1420.542 37.773 1421.314 39.373 1422.784 38.375 1422.654 40.146 1424.425 40.016 1423.427 41.484 1425.026 42.257 1423.427 43.03 1424.425 44.499 1422.654 44.368 1422.784 46.14 1421.314 45.141 1420.542 46.74 1419.77 45.141" fill="#fff"/>
      <path d="M1420.542,38.246l.691,1.431,1.314-.893-.117,1.585,1.585-.117-.893,1.314,1.431.691-1.431.691.893,1.314-1.585-.117.117,1.585-1.314-.893-.691,1.431-.691-1.431-1.314.893.117-1.585-1.585.117.893-1.314-1.431-.691,1.431-.691-.893-1.314,1.585.117-.117-1.585,1.314.893.691-1.431M1420.542,37.301l-.37.766-.484,1.002-.92-.626-.703-.478.062.848.082,1.11-1.11-.082-.848-.062.478.703.626.92-1.002.484-.766.37.766.37,1.002.484-.626.92-.478.703.848-.062,1.11-.082-.082,1.11-.062.848.703-.478.92-.626.484,1.002.37.766.37-.766.484-1.002.92.625.703.478-.062-.848-.082-1.11,1.11.082.848.062-.478-.703-.626-.92,1.002-.484.766-.37-.766-.37-1.002-.484.626-.92.478-.703-.848.062-1.11.082.082-1.11.062-.848-.703.478-.92.626-.484-1.002-.37-.766h0Z" fill="#f42149"/>
    </g>
  </g>
  <g id="Plan">
    <path id="planned" d="M187.458,46.473s30.698,143.69-103.438,210.069" fill="none" stroke="#f42149" stroke-dasharray="4 4"/>
    <path id="planned1" data-name="planned" d="M750.879,45.663s30.844,142.936-103.292,209.314" fill="none" stroke="#f42149" stroke-dasharray="4 4"/>
    <path id="planned2" data-name="planned" d="M1421.55,45.415s33.208,155.735-111.994,227.589" fill="none" stroke="#f42149" stroke-dasharray="4.33 4.33" stroke-width="1.082"/>
  </g>
</svg>
