<?xml version="1.0" encoding="UTF-8"?>
<svg id="g-Shipwrecked-captain_s-doomed-journey-medium-_svg-img" xmlns="http://www.w3.org/2000/svg" baseProfile="tiny" version="1.2" viewBox="0 0 392 337.246">
  <!-- Generator: Adobe Illustrator 29.4.0, SVG Export Plug-In . SVG Version: 2.1.0 Build 152)  -->
  <path id="path" d="M249.4,27.554s4.41,7.111-.167,11.326" fill="none" stroke="#f42149"/>
  <g id="Shipwrecked">
    <g id="Star">
      <polygon points="-315.813 43.911 -317.17 44.833 -317.05 43.197 -318.687 43.317 -317.764 41.96 -319.241 41.246 -317.764 40.532 -318.687 39.175 -317.05 39.296 -317.17 37.659 -315.813 38.582 -315.1 37.104 -314.386 38.582 -313.029 37.659 -313.149 39.296 -311.513 39.175 -312.435 40.532 -310.958 41.246 -312.435 41.96 -311.513 43.317 -313.149 43.197 -313.029 44.833 -314.386 43.911 -315.1 45.388 -315.813 43.911" fill="#fff"/>
      <path d="M-315.1,37.541l.639,1.322,1.214-.825-.108,1.464,1.464-.108-.825,1.214,1.322.639-1.322.639.825,1.214-1.464-.108.108,1.464-1.214-.825-.639,1.322-.639-1.322-1.214.825.108-1.464-1.464.108.825-1.214-1.322-.639,1.322-.639-.825-1.214,1.464.108-.108-1.464,1.214.825.639-1.322M-315.1,36.668l-.342.707-.447.925-.85-.578-.65-.442.058.784.075,1.025-1.025-.075-.784-.058.442.65.578.85-.925.447-.707.342.707.342.925.447-.578.85-.442.65.784-.058,1.025-.075-.075,1.025-.058.784.65-.442.85-.578.447.925.342.707.342-.707.447-.925.85.578.65.442-.058-.784-.075-1.025,1.025.075.784.058-.442-.65-.578-.85.925-.447.707-.342-.707-.342-.925-.447.578-.85.442-.65-.784.058-1.025.075.075-1.025.058-.784-.65.442-.85.578-.447-.925-.342-.707h0Z" fill="#f42149"/>
    </g>
    <g id="Star1" data-name="Star">
      <polygon points="247.755 42.347 246.398 43.269 246.519 41.633 244.882 41.753 245.805 40.396 244.327 39.682 245.805 38.968 244.882 37.611 246.519 37.731 246.398 36.095 247.755 37.018 248.469 35.54 249.183 37.018 250.539 36.095 250.419 37.731 252.056 37.611 251.133 38.968 252.61 39.682 251.133 40.396 252.056 41.753 250.419 41.633 250.539 43.269 249.183 42.347 248.469 43.823 247.755 42.347" fill="#fff"/>
      <path d="M248.469,35.977l.639,1.322,1.214-.825-.108,1.464,1.464-.108-.825,1.214,1.322.639-1.322.639.825,1.214-1.464-.108.108,1.464-1.214-.825-.639,1.322-.639-1.322-1.214.825.108-1.464-1.464.108.825-1.214-1.322-.639,1.322-.639-.825-1.214,1.464.108-.108-1.464,1.214.825.639-1.322M248.469,35.104l-.342.707-.447.925-.85-.578-.65-.442.058.784.075,1.025-1.025-.075-.784-.058.442.65.578.85-.925.447-.707.342.707.342.925.447-.578.85-.442.65.784-.058,1.025-.075-.075,1.025-.058.784.65-.442.85-.578.447.925.342.707.342-.707.447-.925.85.578.65.442-.058-.784-.075-1.025,1.025.075.784.058-.442-.65-.578-.85.925-.447.707-.342-.707-.342-.925-.447.578-.85.442-.65-.784.058-1.025.075.075-1.025.058-.784-.65.442-.85.578-.447-.925-.342-.707h0Z" fill="#f42149"/>
    </g>
    <g id="Star2" data-name="Star">
      <polygon points="918.123 43.009 916.653 44.007 916.784 42.236 915.013 42.367 916.012 40.897 914.412 40.125 916.012 39.352 915.013 37.883 916.784 38.013 916.653 36.242 918.123 37.241 918.896 35.642 919.668 37.241 921.138 36.242 921.007 38.013 922.778 37.883 921.779 39.352 923.379 40.125 921.779 40.897 922.778 42.367 921.007 42.236 921.138 44.007 919.668 43.009 918.896 44.608 918.123 43.009" fill="#fff"/>
      <path d="M918.896,36.114l.691,1.431,1.314-.893-.117,1.585,1.585-.117-.893,1.314,1.431.691-1.431.691.893,1.314-1.585-.117.117,1.585-1.314-.893-.691,1.431-.691-1.431-1.314.893.117-1.585-1.585.117.893-1.314-1.431-.691,1.431-.691-.893-1.314,1.585.117-.117-1.585,1.314.893.691-1.431M918.896,35.169l-.37.766-.484,1.002-.92-.626-.703-.478.062.848.082,1.11-1.11-.082-.848-.062.478.703.626.92-1.002.484-.766.37.766.37,1.002.484-.626.92-.478.703.848-.062,1.11-.082-.082,1.11-.062.848.703-.478.92-.626.484,1.002.37.766.37-.766.484-1.002.92.625.703.478-.062-.848-.082-1.11,1.11.082.848.062-.478-.703-.626-.92,1.002-.484.766-.37-.766-.37-1.002-.484.626-.92.478-.703-.848.062-1.11.082.082-1.11.062-.848-.703.478-.92.626-.484-1.002-.37-.766h0Z" fill="#f42149"/>
    </g>
  </g>
  <g id="Plan">
    <path id="planned" d="M-314.189,44.34s30.698,143.69-103.438,210.069" fill="none" stroke="#f42149" stroke-dasharray="4 4"/>
    <path id="planned1" data-name="planned" d="M249.232,43.531s30.844,142.936-103.292,209.314" fill="none" stroke="#f42149" stroke-dasharray="4 4"/>
    <path id="planned2" data-name="planned" d="M919.903,43.283s33.208,155.735-111.994,227.589" fill="none" stroke="#f42149" stroke-dasharray="4.33 4.33" stroke-width="1.082"/>
  </g>
</svg>
