<?xml version="1.0" encoding="UTF-8"?>
<svg id="g-GreatPyramid_copiedVersion-large-_svg-img" xmlns="http://www.w3.org/2000/svg" baseProfile="tiny" version="1.2" viewBox="0 0 584 454.284">
  <!-- Generator: Adobe Illustrator 29.4.0, SVG Export Plug-In . SVG Version: 2.1.0 Build 152)  -->
  <g id="arrow">
    <g>
      <line x1="454.139" y1="288.652" x2="454.139" y2="226.958" fill="none" stroke="#f42149" stroke-width=".5"/>
      <polygon points="456.632 287.922 454.139 292.24 451.646 287.922 456.632 287.922" fill="#f42149"/>
    </g>
    <g>
      <line x1="466.011" y1="288.652" x2="466.011" y2="232.83" fill="none" stroke="#f42149" stroke-dasharray="1 1" stroke-width=".5"/>
      <polygon points="468.504 287.922 466.012 292.24 463.518 287.922 468.504 287.922" fill="#f42149"/>
    </g>
    <g>
      <line x1="490.011" y1="288.652" x2="490.011" y2="244.607" fill="none" stroke="#f42149" stroke-dasharray="1 1" stroke-width=".5"/>
      <polygon points="492.504 287.922 490.012 292.24 487.518 287.922 492.504 287.922" fill="#f42149"/>
    </g>
    <g>
      <line x1="513.884" y1="288.652" x2="513.884" y2="256.83" fill="none" stroke="#f42149" stroke-dasharray="1 1" stroke-width=".5"/>
      <polygon points="516.377 287.922 513.884 292.24 511.391 287.922 516.377 287.922" fill="#f42149"/>
    </g>
    <g>
      <line x1="538.043" y1="288.652" x2="538.043" y2="269.596" fill="none" stroke="#f42149" stroke-dasharray="1 1" stroke-width=".5"/>
      <polygon points="540.536 287.922 538.043 292.24 535.55 287.922 540.536 287.922" fill="#f42149"/>
    </g>
    <g>
      <line x1="477.884" y1="288.652" x2="477.884" y2="238.83" fill="none" stroke="#f42149" stroke-width=".5"/>
      <polygon points="480.377 287.922 477.884 292.24 475.391 287.922 480.377 287.922" fill="#f42149"/>
    </g>
    <g>
      <line x1="502.139" y1="288.652" x2="502.139" y2="250.702" fill="none" stroke="#f42149" stroke-width=".5"/>
      <polygon points="504.632 287.922 502.139 292.24 499.646 287.922 504.632 287.922" fill="#f42149"/>
    </g>
    <g>
      <line x1="525.756" y1="288.652" x2="525.756" y2="264.234" fill="none" stroke="#f42149" stroke-width=".5"/>
      <polygon points="528.249 287.922 525.756 292.24 523.263 287.922 528.249 287.922" fill="#f42149"/>
    </g>
    <g>
      <line x1="549.309" y1="288.971" x2="549.309" y2="275.66" fill="none" stroke="#f42149" stroke-width=".5"/>
      <polygon points="551.802 288.242 549.309 292.559 546.816 288.242 551.802 288.242" fill="#f42149"/>
    </g>
    <g>
      <line x1="561.277" y1="288.971" x2="561.277" y2="280.894" fill="none" stroke="#f42149" stroke-width=".5"/>
      <polygon points="563.77 288.242 561.278 292.559 558.784 288.242 563.77 288.242" fill="#f42149"/>
    </g>
  </g>
  <g id="cart1">
    <line x1="496.267" y1="170.047" x2="595.841" y2="219.834" fill="none" stroke="#595959" stroke-dasharray="10 50" stroke-miterlimit="10" stroke-width="6"/>
    <line x1="496.267" y1="170.047" x2="595.841" y2="219.834" fill="none" stroke="#d1d1d1" stroke-dasharray="10 50" stroke-miterlimit="10" stroke-width="5"/>
  </g>
  <g id="cart11" data-name="cart1">
    <line x1="364.941" y1="45.628" x2="496.494" y2="111.596" fill="none" stroke="#595959" stroke-dasharray="10 50" stroke-miterlimit="10" stroke-width="6"/>
    <line x1="364.941" y1="45.628" x2="496.494" y2="111.596" fill="none" stroke="#d1d1d1" stroke-dasharray="10 50" stroke-miterlimit="10" stroke-width="5"/>
  </g>
  <g id="cart12" data-name="cart1">
    <line x1="362.376" y1="44.325" x2="363.17" y2="227.468" fill="none" stroke="#595959" stroke-dasharray="10 50" stroke-miterlimit="10" stroke-width="6"/>
    <line x1="362.376" y1="44.325" x2="363.17" y2="227.468" fill="none" stroke="#d1d1d1" stroke-dasharray="10 50" stroke-miterlimit="10" stroke-width="5"/>
  </g>
  <g id="cart13" data-name="cart1">
    <line x1="389.513" y1="121.766" x2="390.181" y2="227.468" fill="none" stroke="#595959" stroke-dasharray="10 50" stroke-miterlimit="10" stroke-width="6"/>
    <line x1="389.513" y1="121.766" x2="390.181" y2="227.468" fill="none" stroke="#d1d1d1" stroke-dasharray="10 50" stroke-miterlimit="10" stroke-width="5"/>
  </g>
  <path id="ropes" d="M228.141,138.01v-54.624,1.277s-.411-3.114,3-3,3,4.66,3,4.66v51.688" fill="none" stroke="red" stroke-miterlimit="10"/>
  <path id="ropes1" data-name="ropes" d="M224.711,138.01c.012-1.085.459-53.348.459-53.348,0,0-.247-3.305-3.459-3s-3,3-3,3c0,0-.373,2.461,3.235,3.226,4.388.93,24.081,11.854,24.052,11.838" fill="none" stroke="red" stroke-miterlimit="10"/>
  <path id="ropes2" data-name="ropes" d="M307.073,114.904l-63.335-32.457s-6.08-4.217-6.846,3.876,0,51.688,0,51.688" fill="none" stroke="red" stroke-miterlimit="10"/>
</svg>
