<?xml version="1.0" encoding="UTF-8"?>
<svg id="g-U_S_-Capitol_2-large-_svg-img" xmlns="http://www.w3.org/2000/svg" baseProfile="tiny" version="1.2" xmlns:xlink="http://www.w3.org/1999/xlink" viewBox="0 0 584 300">
  <!-- Generator: Adobe Illustrator 29.4.0, SVG Export Plug-In . SVG Version: 2.1.0 Build 152)  -->
  <defs>
    <linearGradient id="linear-gradient" x1="342.342" y1="129.508" x2="419.932" y2="129.508" gradientUnits="userSpaceOnUse">
      <stop offset="0" stop-color="#ef870a"/>
      <stop offset="1" stop-color="#ef870a" stop-opacity="0"/>
    </linearGradient>
    <linearGradient id="linear-gradient1" x1="310.302" y1="139.895" x2="228.222" y2="139.895" xlink:href="#linear-gradient"/>
  </defs>
  <path id="arrowr" d="M419.932,116.63l-2.95,5.23c-1.27-.71-30.57-16.55-57.3,12.57l6.98,6.88-24.32,6.7,6.35-24.41,6.71,6.61c15.1-16.32,31.13-19.52,42.22-19.18,12.9.37,21.93,5.38,22.31,5.6Z" fill="url(#linear-gradient)"/>
  <path id="arrowl" d="M310.302,126.29l-10.79,22.79-5.35-7.74c-12.65,9.35-24.52,12.16-34.23,12.16-4.01,0-7.66-.48-10.84-1.18-12.59-2.77-20.53-9.38-20.87-9.66l3.87-4.59c1.12.94,26.94,21.94,58.65-1.66l-5.58-8.07,25.14-2.05Z" fill="url(#linear-gradient1)"/>
</svg>
